<svg xmlns="http://www.w3.org/2000/svg" version="1.1" xmlns:xlink="http://www.w3.org/1999/xlink" xmlns:svgjs="http://svgjs.dev/svgjs" width="2000" height="1252" viewBox="0 0 2000 1252"><g transform="matrix(1,0,0,1,-1.2121212121212466,-2.01935483870966)"><svg viewBox="0 0 396 248" data-background-color="#00b4f6" preserveAspectRatio="xMidYMid meet" height="1252" width="2000" xmlns="http://www.w3.org/2000/svg" xmlns:xlink="http://www.w3.org/1999/xlink"><g id="tight-bounds" transform="matrix(1,0,0,1,0.2400000000000091,0.4000000000000057)"><svg viewBox="0 0 395.52 247.2" height="247.2" width="395.52"><g><svg></svg></g><g><svg viewBox="0 0 395.52 247.2" height="247.2" width="395.52"><g transform="matrix(1,0,0,1,75.54432,88.24835702479339)"><svg viewBox="0 0 244.43135999999998 70.70328595041322" height="70.70328595041322" width="244.43135999999998"><g><svg viewBox="0 0 244.43135999999998 70.70328595041322" height="70.70328595041322" width="244.43135999999998"><g><svg viewBox="0 0 244.43135999999998 70.70328595041322" height="70.70328595041322" width="244.43135999999998"><g id="textblocktransform"><svg viewBox="0 0 244.43135999999998 70.70328595041322" height="70.70328595041322" width="244.43135999999998" id="textblock"><g><svg viewBox="0 0 244.43135999999998 70.70328595041322" height="70.70328595041322" width="244.43135999999998"><g transform="matrix(1,0,0,1,0,0)"><svg width="244.43135999999998" viewBox="1 -36 127.03999999999999 36.75" height="70.70328595041322" data-palette-color="#ffffff"><path d="M21.75-31.3L1-31.3 1-35.25 21.75-35.25 21.75-31.3ZM13.65 0L9.1 0 9.1-35.25 13.65-35.25 13.65 0ZM36.45-25.25L41-25.25 41 0 36.45 0 36.45-25.25ZM22.4-25.25L26.95-25.25 26.95-8.05 22.4-8.05 22.4-25.25ZM22.4-8.05L26.95-8.05Q26.95-5.95 28.27-4.63 29.6-3.3 31.65-3.3L31.65-3.3 30.5 0.75Q28.15 0.75 26.32-0.4 24.5-1.55 23.45-3.55 22.4-5.55 22.4-8.05L22.4-8.05ZM36.45-8.2L38.45-8.2Q38.45-5.65 37.42-3.63 36.4-1.6 34.57-0.43 32.75 0.75 30.5 0.75L30.5 0.75 31.65-3.3Q33.75-3.3 35.1-4.65 36.45-6 36.45-8.2L36.45-8.2ZM58.85-6.5L58.85-6.5Q58.85-7.75 57.95-8.58 57.05-9.4 55.62-10.08 54.2-10.75 52.62-11.45 51.05-12.15 49.62-13.08 48.2-14 47.3-15.43 46.4-16.85 46.4-18.9L46.4-18.9Q46.4-18.9 46.82-18.9 47.25-18.9 47.92-18.9 48.6-18.9 49.25-18.9 49.9-18.9 50.35-18.9 50.8-18.9 50.8-18.9L50.8-18.9Q50.8-17.65 51.7-16.82 52.6-16 54.02-15.35 55.45-14.7 57.05-13.98 58.65-13.25 60.05-12.3 61.45-11.35 62.37-9.98 63.3-8.6 63.3-6.5L63.3-6.5Q63.3-6.5 62.84-6.5 62.4-6.5 61.72-6.5 61.05-6.5 60.4-6.5 59.75-6.5 59.3-6.5 58.85-6.5 58.85-6.5ZM54.6 0.75L54.6 0.75 54.6-3.2Q56.45-3.2 57.65-4.13 58.85-5.05 58.85-6.5L58.85-6.5 63.3-6.5Q63.3-4.4 62.17-2.75 61.05-1.1 59.1-0.18 57.15 0.75 54.6 0.75ZM50.8-18.9L46.4-18.9Q46.4-20.95 47.42-22.58 48.45-24.2 50.3-25.13 52.15-26.05 54.4-26.05L54.4-26.05 54.4-22.1Q52.85-22.1 51.82-21.2 50.8-20.3 50.8-18.9L50.8-18.9ZM45.65-6.7L49.85-7.55Q50.1-5.35 51.45-4.28 52.8-3.2 54.6-3.2L54.6-3.2 54.6 0.75Q52.3 0.75 50.35-0.2 48.4-1.15 47.17-2.85 45.95-4.55 45.65-6.7L45.65-6.7ZM63.35-18.6L59.1-17.75Q58.85-20 57.52-21.05 56.2-22.1 54.4-22.1L54.4-22.1 54.4-26.05Q56.75-26.05 58.65-25.1 60.55-24.15 61.8-22.48 63.05-20.8 63.35-18.6L63.35-18.6ZM72.54 0L67.99 0 67.99-25.25 72.54-25.25 72.54 0ZM86.59 0L82.04 0 82.04-17.2 86.59-17.2 86.59 0ZM86.59-17.2L82.04-17.2Q82.04-19.3 80.74-20.63 79.44-21.95 77.39-21.95L77.39-21.95 78.54-26Q80.84-26 82.67-24.85 84.49-23.7 85.54-21.7 86.59-19.7 86.59-17.2L86.59-17.2ZM72.54-17.1L70.54-17.1Q70.54-19.65 71.59-21.68 72.64-23.7 74.44-24.85 76.24-26 78.54-26L78.54-26 77.39-21.95Q75.24-21.95 73.89-20.6 72.54-19.25 72.54-17.1L72.54-17.1ZM72.54 0L67.99 0 67.99-36 72.54-36 72.54 0ZM109.79 0L105.24 0 105.24-17.2 109.79-17.2 109.79 0ZM99.14 0.75L99.14 0.75 99.49-3Q101.29-3 102.57-3.9 103.84-4.8 104.54-6.55 105.24-8.3 105.24-10.7L105.24-10.7 107.49-10.8Q107.49-7.4 106.39-4.8 105.29-2.2 103.42-0.73 101.54 0.75 99.14 0.75ZM99.49-3L99.14 0.75Q96.89 0.75 95.04-0.3 93.19-1.35 92.09-3.18 90.99-5 90.99-7.25L90.99-7.25 95.29-7.4Q95.29-5.5 96.57-4.25 97.84-3 99.49-3L99.49-3ZM95.29-7.4L90.99-7.25Q90.99-9.6 92.17-11.38 93.34-13.15 95.34-14.2 97.34-15.25 99.89-15.25L99.89-15.25 100.14-11.75Q98.04-11.75 96.67-10.53 95.29-9.3 95.29-7.4L95.29-7.4ZM107.59-11.75L100.14-11.75 99.89-15.25 107.59-15.25 107.59-11.75ZM107.49-10.8L105.24-10.7 105.24-17.15 107.49-17.15 107.49-10.8ZM109.79-17.1L109.79-17.1 105.24-17.1Q105.24-19.3 103.92-20.7 102.59-22.1 100.49-22.1L100.49-22.1 100.49-26Q103.19-26 105.27-24.85 107.34-23.7 108.57-21.68 109.79-19.65 109.79-17.1ZM95.79-17.7L95.79-17.7 91.59-18.55Q91.89-20.8 93.12-22.45 94.34-24.1 96.27-25.05 98.19-26 100.54-26L100.54-26 100.54-22.1Q98.69-22.1 97.37-21.03 96.04-19.95 95.79-17.7ZM119.49 0L114.94 0 114.94-25.25 119.49-25.25 119.49 0ZM119.49-16.9L117.44-16.9Q117.44-19.45 118.29-21.48 119.14-23.5 120.61-24.65 122.09-25.8 123.89-25.8L123.89-25.8 123.49-21.55Q121.74-21.55 120.61-20.23 119.49-18.9 119.49-16.9L119.49-16.9ZM128.04-24.2L126.49-20.4Q125.89-20.9 125.06-21.23 124.24-21.55 123.49-21.55L123.49-21.55 123.89-25.8Q125.04-25.8 126.14-25.38 127.24-24.95 128.04-24.2L128.04-24.2Z" opacity="1" transform="matrix(1,0,0,1,0,0)" fill="#ffffff" class="wordmark-text-0" data-fill-palette-color="primary" id="text-0"></path></svg></g></svg></g></svg></g></svg></g></svg></g></svg></g><g><path d="M0 123.6c0-68.262 55.338-123.6 123.6-123.6 52.878 0 98.001 33.206 115.654 79.903h-3.416c-17.493-44.899-61.15-76.715-112.238-76.715-66.502 0-120.412 53.91-120.412 120.412 0 66.502 53.91 120.412 120.412 120.412 51.088 0 94.745-31.816 112.238-76.715h3.416c-17.653 46.697-62.775 79.903-115.654 79.903-68.262 0-123.6-55.338-123.6-123.6z" fill="#ffffff" stroke="transparent" data-fill-palette-color="tertiary"></path></g></svg></g><defs></defs></svg><rect width="395.52" height="247.2" fill="none" stroke="none" visibility="hidden"></rect></g></svg></g></svg>